<svg xmlns="http://www.w3.org/2000/svg" xmlns:xlink="http://www.w3.org/1999/xlink" width="32" height="32"><defs><linearGradient id="a"><stop offset="0" stop-color="#ff1679"/><stop offset="1" stop-color="#ff770b"/></linearGradient><linearGradient id="b" x1="992.183" x2="1019.298" y1="516.081" y2="545.959" gradientTransform="translate(-1015.137 491.682) scale(1.02524)" gradientUnits="userSpaceOnUse" xlink:href="#a"/></defs><g transform="translate(0 -1020.362)"><rect width="32" height="32" y="1020.362" fill="url(#b)" rx="6.763" ry="6.763"/><path style="text-indent:0;text-align:start;line-height:normal;text-transform:none;block-progression:tb" fill="#fff" d="M11 11c-.583 0-1.1.163-1.469.531C9.163 11.9 9 12.417 9 13v5c0 .583.161 1.105.531 1.469.37.363.889.531 1.469.531H15.781l3.344 3.844A.5.5 0 0 0 20 23.5V20h1c.58 0 1.099-.168 1.469-.531.37-.364.531-.886.531-1.469v-5c0-.583-.163-1.106-.531-1.469S21.577 11.015 21 11H11zm0 1h10c.423.011.65.12.781.25.132.13.219.333.219.75v5c0 .417-.089.622-.219.75S21.42 19 21 19h-1.5a.5.5 0 0 0-.5.5v2.688l-2.625-3A.5.5 0 0 0 16 19.03h-3.25L11 19c-.42 0-.651-.122-.781-.25S10 18.417 10 18v-5c0-.416.087-.65.219-.781.132-.132.364-.219.781-.219z" color="#000" font-family="sans-serif" font-weight="400" overflow="visible" transform="translate(0 1020.362)"/></g></svg>